<?xml version="1.0" encoding="utf-8"?>
<!-- Generator: Adobe Illustrator 24.0.0, SVG Export Plug-In . SVG Version: 6.00 Build 0)  -->
<svg version="1.1" id="Layer_1" xmlns="http://www.w3.org/2000/svg" xmlns:xlink="http://www.w3.org/1999/xlink" x="0px" y="0px"
	 viewBox="0 0 109.7 129.3" style="enable-background:new 0 0 109.7 129.3;" xml:space="preserve">
<style type="text/css">
	.st0{enable-background:new    ;}
	.st1{fill:#F47852;}
</style>
<g class="st0">
	<path class="st1" d="M39.4,69.9h-3.6v-5.2c0.5-0.3,1-0.5,1.5-0.7c0.5-0.2,0.9-0.4,1.4-0.7s0.8-0.6,1.2-0.9c0.4-0.4,0.7-0.9,1-1.5
		h5.2V96h-6.7V69.9z"/>
	<path class="st1" d="M57.2,84.8c0,0.2,0,0.3,0,0.5s0,0.3,0,0.4c0,0.6,0,1.2,0,1.8s0.1,1.2,0.3,1.7s0.4,0.9,0.7,1.2s0.7,0.5,1.2,0.5
		c1.6,0,2.6-1.2,2.9-3.7c0.1-0.3,0.1-0.8,0.1-1.4s0-1.4,0-2.3c0-0.4,0-0.9,0-1.5s-0.1-1.1-0.3-1.7s-0.4-1-0.8-1.4s-0.9-0.6-1.5-0.6
		c-0.3,0-0.6,0.1-0.9,0.2s-0.5,0.4-0.8,0.6s-0.5,0.5-0.7,0.9s-0.4,0.7-0.5,1h-5.8V60.8h16.7v6.7H57.5l-0.3,6.3
		c1.3-0.8,2.5-1.2,3.7-1.2c1.1,0,2.1,0.1,2.9,0.4s1.5,0.7,2.1,1.2s1.1,1.1,1.5,1.8s0.7,1.4,1,2.2s0.4,1.6,0.5,2.5s0.1,1.8,0.1,2.7
		c0,1,0,2-0.1,3.1s-0.3,2-0.5,3s-0.6,1.9-1,2.8s-1,1.6-1.7,2.3s-1.5,1.2-2.5,1.5s-2.2,0.6-3.5,0.6c-1.8,0-3.4-0.3-4.6-0.9
		c-1.2-0.6-2.1-1.5-2.8-2.5c-0.7-1.1-1.2-2.3-1.4-3.8s-0.4-3-0.4-4.6H57.2z"/>
</g>
<path id="Path_185" class="st1" d="M94.1,10.7h-3v-6c0-2.6-2.1-4.7-4.7-4.7c-2.6,0-4.7,2.1-4.7,4.7v6h-54v-6c0-2.6-2.1-4.7-4.7-4.7
	c-2.6,0-4.7,2.1-4.7,4.7v6h-3C7,10.7,0,17.6,0,26.2v87.6c0,8.6,7,15.5,15.5,15.5h41.6c0,0,0.1,0,0.1,0c0.2,0,0.3,0,0.5,0
	c2-0.2,48.3-5.2,51.9-31.3c0-0.2,0-0.4,0-0.6V26.2C109.7,17.6,102.7,10.7,94.1,10.7z M15.5,20h3v4.8c0,2.6,2.1,4.7,4.7,4.7
	s4.7-2.1,4.7-4.7c0,0,0,0,0,0V20h54v4.8c0,2.6,2.1,4.7,4.7,4.7c2.6,0,4.7-2.1,4.7-4.7V20h3c3.4,0,6.2,2.8,6.2,6.2v13h-91v-13
	C9.3,22.8,12.1,20,15.5,20z M74.2,84.4c-1.2,1.2-1.6,3-1.1,4.6c2.4,7.7,2.1,14.2-0.9,19.5c-4.3,7.7-13.3,10.8-15.5,11.5H15.5
	c-3.4,0-6.2-2.8-6.2-6.2V48.6h91v40.8l-21.6-6.2C77.1,82.8,75.4,83.2,74.2,84.4L74.2,84.4z M79.1,114.9c0.4-0.6,0.7-1.1,1.1-1.7
	c3.2-5.7,4.4-12.4,3.5-18.9L99.9,99C97.5,106.4,88.6,111.6,79.1,114.9L79.1,114.9z"/>
</svg>
